<svg xmlns="http://www.w3.org/2000/svg" viewBox="0 0 128 128"><path fill="#333" d="M71.9 36.5l14.9 8.6c.4.2.4.8 0 1L64 59.7 41.2 46.1c-.4-.2-.4-.8 0-1l14.9-8.6V18.7L30 34v30.9l13.4 7.7V58l13 7.5v27.4L40.1 85l-2.6 1.5v16.8L64 118.8l26.5-15.3V86.7l-2.6-1.5-16.3 9.4V67.2l13-7.5v14.6L98 66.6V35.7L71.9 20.5v16z"/><path fill="#555" d="M92 34.5V65L78.5 73v-15L64 49.5V18.3L92 34.5zM36 34.5L64 18.3v31.2L50.5 58v15L37 65V34.5zM64 69.5l13.5-7.8v15.6L64 85l-13.5-7.7V61.7L64 69.5zM50.5 86.7l13.5 7.8v16.2l-27.5-16V78.5L50.5 86.7zM77.5 86.7l13.5-7.8v16.2l-27.5 16V95.5l14-8.8z"/></svg>
